PathFileType	4	(X/Y/Z)	OpenSim_Sub05_CSBaseline_Magnet.trc
DataRate	CameraRate	NumFrames	NumMarkers	Units	OrigDataRate	OrigDataStartFrame	OrigNumFrames
100	100	13	8	m	100	7918	10557
Frame#	Time	torso_imu_offset_imu	pelvis_imu_offset_imu	tibia_r_imu_offset_imu	femur_r_imu_offset_imu	tibia_l_imu_offset_imu	femur_l_imu_offset_imu	toes_r_imu_offset_imu	toes_l_imu_offset_imu
				X1	Y1	Z1	X2	Y2	Z2	X3	Y3	Z3	X4	Y4	Z4	X5	Y5	Z5	X6	Y6	Z6	X7	Y7	Z7	X8		Y8	Z8	

7918	79.17000000	-0.90357917	-0.20046585	0.15991255	-0.68382962	0.19525403	-0.64644193	-0.51972914	-0.62440154	-0.03654227	-0.72572867	-0.42064633	0.16718080	-0.65796545	0.42134336	0.22265356	-0.64590662	0.11766811	0.16431626	-0.72620433	-0.12826490	-0.30299246	-0.67905831	-0.22611437	-0.35602939
7919	79.18000000	-0.90282393	-0.20147083	0.16238626	-0.67331962	0.19522919	-0.63719035	-0.51589766	-0.63430851	-0.04482775	-0.73058872	-0.42163334	0.16910340	-0.67983316	0.40138182	0.22409537	-0.64480203	0.11518628	0.15981116	-0.72517195	-0.13412317	-0.30245108	-0.66826088	-0.23257050	-0.37413033
7920	79.19000000	-0.90371754	-0.19563018	0.16502011	-0.67340924	0.19854192	-0.64043872	-0.51258306	-0.63848644	-0.03924699	-0.72841448	-0.41874014	0.16235678	-0.68963261	0.38235121	0.21556121	-0.64736583	0.11990281	0.16011883	-0.72951790	-0.13489010	-0.29936782	-0.66157619	-0.23692492	-0.39758001
7921	79.20000000	-0.90020246	-0.19612670	0.16282188	-0.68216912	0.20006373	-0.64190901	-0.50382633	-0.64224919	-0.04622608	-0.72663844	-0.42205533	0.15913198	-0.70072579	0.35270132	0.20982239	-0.64604591	0.12226917	0.15963214	-0.72643161	-0.13547021	-0.29735133	-0.65054032	-0.24010157	-0.39938031
7922	79.21000000	-0.89840343	-0.19145852	0.16827143	-0.68226616	0.19933313	-0.63758748	-0.49697027	-0.64207867	-0.04792933	-0.72574819	-0.42861499	0.16115907	-0.71647685	0.32824632	0.21120209	-0.64608149	0.12179853	0.16468787	-0.73049868	-0.14158753	-0.29972077	-0.63222808	-0.24322792	-0.42039155
7923	79.22000000	-0.90222960	-0.19181879	0.17598335	-0.67896954	0.20226922	-0.62897679	-0.49106686	-0.65199110	-0.05130021	-0.72041964	-0.44071856	0.16694009	-0.71927198	0.31706934	0.20690875	-0.64047441	0.12149271	0.16231554	-0.72886616	-0.14309269	-0.29799352	-0.62077766	-0.24319015	-0.43406253
7924	79.23000000	-0.90389387	-0.18744340	0.17230963	-0.68274243	0.20737439	-0.62599845	-0.49162170	-0.65747005	-0.05505236	-0.71326335	-0.43819352	0.16178230	-0.73061635	0.29765032	0.20196792	-0.64021913	0.12394020	0.16875005	-0.72915926	-0.14569014	-0.28948677	-0.61256029	-0.24583053	-0.45455882
7925	79.24000000	-0.90219698	-0.18728020	0.17354249	-0.68162374	0.20671577	-0.62828086	-0.48033727	-0.66152698	-0.05983145	-0.72229124	-0.43661985	0.15134799	-0.73176554	0.28069265	0.20222794	-0.64010265	0.12072851	0.17849490	-0.72762905	-0.15000499	-0.28562068	-0.60286430	-0.25148166	-0.46765332
7926	79.25000000	-0.89949259	-0.18537920	0.16815605	-0.68509472	0.20678288	-0.62974895	-0.46912788	-0.66853412	-0.06570929	-0.71872905	-0.44158172	0.15671421	-0.73565875	0.27280062	0.20047520	-0.63670225	0.12091172	0.18138373	-0.73224174	-0.15407417	-0.28175485	-0.59564747	-0.24884979	-0.47307791
7927	79.26000000	-0.90193199	-0.18133552	0.17023445	-0.68046155	0.21154434	-0.62470298	-0.46094959	-0.67315884	-0.06621459	-0.71626423	-0.44089086	0.15387170	-0.73617972	0.26834237	0.20369949	-0.63961768	0.12205038	0.18244677	-0.73165133	-0.15787326	-0.27105040	-0.58957010	-0.25924974	-0.47894464
7928	79.27000000	-0.90618871	-0.18479935	0.16722512	-0.68620594	0.21040004	-0.61810698	-0.45343074	-0.67719753	-0.06747191	-0.72132523	-0.43999789	0.14943754	-0.73592387	0.26212052	0.20559225	-0.64226665	0.12178342	0.17932629	-0.73640279	-0.16350469	-0.26699819	-0.59053810	-0.26097819	-0.48083119
7929	79.28000000	-0.90094480	-0.18473085	0.17516644	-0.69401690	0.21266543	-0.61805967	-0.43748349	-0.68280471	-0.06913171	-0.72327197	-0.44028631	0.14577638	-0.73917564	0.25801327	0.20692358	-0.63553034	0.12101836	0.18603956	-0.73383504	-0.15856519	-0.26118636	-0.59031221	-0.25332422	-0.48531858
7930	79.29000000	-0.90064268	-0.18170817	0.17363443	-0.68348474	0.21725365	-0.61298111	-0.42784969	-0.70029247	-0.07431764	-0.72682185	-0.43997286	0.14317142	-0.73746638	0.26050236	0.20930317	-0.63800004	0.11430495	0.18816905	-0.74240233	-0.16279338	-0.24994947	-0.60104249	-0.24853877	-0.47261291
